<svg width="56" height="56" viewBox="0 0 56 56" fill="none" xmlns="http://www.w3.org/2000/svg">
<circle cx="28" cy="28" r="28" fill="#E3F4FE"/>
<path d="M24.3333 26.6H21.5556V29.4H24.3333V26.6ZM29.8889 26.6H27.1111V29.4H29.8889V26.6ZM35.4444 26.6H32.6667V29.4H35.4444V26.6ZM38.2222 16.8H36.8333V14H34.0556V16.8H22.9444V14H20.1667V16.8H18.7778C17.2361 16.8 16.0139 18.06 16.0139 19.6L16 39.2C16 40.74 17.2361 42 18.7778 42H38.2222C39.75 42 41 40.74 41 39.2V19.6C41 18.06 39.75 16.8 38.2222 16.8ZM38.2222 39.2H18.7778V23.8H38.2222V39.2Z" fill="#6BBBF3"/>
</svg>
