<svg width="49" height="49" viewBox="0 0 49 49" fill="none" xmlns="http://www.w3.org/2000/svg">
<path d="M22.9708 2.41083C23.5976 1.33464 25.1524 1.33465 25.7792 2.41083L31.8946 12.9103C32.1242 13.3046 32.509 13.5841 32.9549 13.6807L44.8303 16.2522C46.0475 16.5158 46.5279 17.9945 45.6981 18.9232L37.6022 27.9838C37.2982 28.324 37.1513 28.7763 37.1972 29.2302L38.4212 41.319C38.5467 42.5581 37.2889 43.472 36.1492 42.9697L25.0303 38.07C24.6128 37.886 24.1372 37.886 23.7197 38.07L12.6008 42.9697C11.4611 43.472 10.2033 42.5581 10.3288 41.319L11.5528 29.2302C11.5987 28.7763 11.4518 28.324 11.1478 27.9838L3.05192 18.9232C2.2221 17.9945 2.70254 16.5158 3.91975 16.2522L15.7951 13.6807C16.241 13.5841 16.6258 13.3046 16.8554 12.9103L22.9708 2.41083Z" fill="#6BBBF3"/>
</svg>
