<svg width="25" height="25" viewBox="0 0 25 25" fill="none" xmlns="http://www.w3.org/2000/svg">
<path d="M13.6049 0.457641C12.9947 -0.152547 12.0054 -0.152547 11.3952 0.457641L0.457641 11.3951C-0.152547 12.0053 -0.152547 12.9947 0.457641 13.6048C1.06785 14.215 2.05716 14.215 2.66736 13.6048L3.125 13.1472V23.4375C3.125 24.3005 3.82457 25 4.68751 25H7.81251C8.67545 25 9.37501 24.3005 9.37501 23.4375V20.3125C9.37501 19.4495 10.0746 18.75 10.9375 18.75H14.0625C14.9255 18.75 15.625 19.4495 15.625 20.3125V23.4375C15.625 24.3005 16.3246 25 17.1875 25H20.3125C21.1755 25 21.875 24.3005 21.875 23.4375V13.1472L22.3327 13.6048C22.9428 14.215 23.9322 14.215 24.5424 13.6048C25.1525 12.9947 25.1525 12.0053 24.5424 11.3951L13.6049 0.457641Z" fill="#6BBBF3"/>
</svg>
