<svg width="56" height="56" viewBox="0 0 56 56" fill="none" xmlns="http://www.w3.org/2000/svg">
<circle cx="28" cy="28" r="28" fill="#E3F4FE"/>
<path fill-rule="evenodd" clip-rule="evenodd" d="M32.8076 29.3748C34.3644 30.4316 35.4553 31.8634 35.4553 33.7724V37.1815H40.0007V33.7724C40.0007 31.2952 35.9439 29.8293 32.8076 29.3748Z" fill="#6BBBF3"/>
<path d="M24.0903 28.0908C26.6007 28.0908 28.6357 26.0557 28.6357 23.5454C28.6357 21.035 26.6007 19 24.0903 19C21.58 19 19.5449 21.035 19.5449 23.5454C19.5449 26.0557 21.58 28.0908 24.0903 28.0908Z" fill="#6BBBF3"/>
<path fill-rule="evenodd" clip-rule="evenodd" d="M30.9078 28.0908C33.4192 28.0908 35.4532 26.0567 35.4532 23.5454C35.4532 21.0341 33.4192 19 30.9078 19C30.3737 19 29.8738 19.1136 29.3965 19.2727C30.3397 20.4432 30.9078 21.9318 30.9078 23.5454C30.9078 25.159 30.3397 26.6476 29.3965 27.8181C29.8738 27.9772 30.3737 28.0908 30.9078 28.0908Z" fill="#6BBBF3"/>
<path fill-rule="evenodd" clip-rule="evenodd" d="M24.0908 29.2271C21.0567 29.2271 15 30.7498 15 33.7724V37.1815H33.1816V33.7724C33.1816 30.7498 27.1248 29.2271 24.0908 29.2271Z" fill="#6BBBF3"/>
</svg>
