<svg width="34" height="34" viewBox="0 0 34 34" fill="none" xmlns="http://www.w3.org/2000/svg">
<rect width="34" height="34" rx="6" fill="#BBE0FA"/>
<path d="M24.0556 17.3333H8.94444C8.425 17.3333 8 17.7083 8 18.1667V23.1667C8 23.625 8.425 24 8.94444 24H24.0556C24.575 24 25 23.625 25 23.1667V18.1667C25 17.7083 24.575 17.3333 24.0556 17.3333ZM11.7778 22.3333C10.7389 22.3333 9.88889 21.5833 9.88889 20.6667C9.88889 19.75 10.7389 19 11.7778 19C12.8167 19 13.6667 19.75 13.6667 20.6667C13.6667 21.5833 12.8167 22.3333 11.7778 22.3333ZM24.0556 9H8.94444C8.425 9 8 9.375 8 9.83333V14.8333C8 15.2917 8.425 15.6667 8.94444 15.6667H24.0556C24.575 15.6667 25 15.2917 25 14.8333V9.83333C25 9.375 24.575 9 24.0556 9ZM11.7778 14C10.7389 14 9.88889 13.25 9.88889 12.3333C9.88889 11.4167 10.7389 10.6667 11.7778 10.6667C12.8167 10.6667 13.6667 11.4167 13.6667 12.3333C13.6667 13.25 12.8167 14 11.7778 14Z" fill="#6BBBF3"/>
</svg>
