<svg width="34" height="34" viewBox="0 0 34 34" fill="none" xmlns="http://www.w3.org/2000/svg">
<rect width="34" height="34" rx="6" fill="#BBE0FA"/>
<path d="M15.5676 9.40576C15.8976 8.55427 17.1024 8.55427 17.4324 9.40576L18.9208 13.246C19.0627 13.6121 19.4057 13.8613 19.7977 13.8831L23.9099 14.112C24.8217 14.1627 25.194 15.3085 24.4862 15.8855L21.2938 18.4878C20.9895 18.7359 20.8585 19.139 20.9589 19.5186L22.012 23.5003C22.2455 24.3832 21.2708 25.0913 20.5033 24.5964L17.0419 22.3644C16.712 22.1517 16.288 22.1517 15.9581 22.3644L12.4967 24.5964C11.7292 25.0913 10.7545 24.3832 10.988 23.5003L12.0411 19.5186C12.1415 19.139 12.0105 18.7359 11.7062 18.4878L8.51379 15.8855C7.80596 15.3085 8.17826 14.1627 9.09005 14.112L13.2023 13.8831C13.5943 13.8613 13.9373 13.6121 14.0792 13.246L15.5676 9.40576Z" fill="#6BBBF3"/>
</svg>
