<svg width="47" height="46" viewBox="0 0 47 46" fill="none" xmlns="http://www.w3.org/2000/svg">
<path d="M21.9708 3.16083C22.5976 2.08464 24.1524 2.08465 24.7792 3.16083L30.8946 13.6603C31.1242 14.0546 31.509 14.3341 31.9549 14.4307L43.8303 17.0022C45.0475 17.2658 45.5279 18.7445 44.6981 19.6732L36.6022 28.7338C36.2982 29.074 36.1513 29.5263 36.1972 29.9802L37.4212 42.069C37.5467 43.3081 36.2889 44.222 35.1492 43.7197L24.0303 38.82C23.6128 38.636 23.1372 38.636 22.7197 38.82L11.6008 43.7197C10.4611 44.222 9.20332 43.3081 9.32878 42.069L10.5528 29.9802C10.5987 29.5263 10.4518 29.074 10.1478 28.7338L2.05192 19.6732C1.2221 18.7445 1.70254 17.2658 2.91975 17.0022L14.7951 14.4307C15.241 14.3341 15.6258 14.0546 15.8554 13.6603L21.9708 3.16083Z" fill="white" stroke="#6BBBF3" stroke-width="3"/>
</svg>
